<svg width="150" height="30" viewBox="0 0 171 36" fill="none" xmlns="http://www.w3.org/2000/svg">
<path d="M127.602 31.9922L138.207 0H142.074L131.273 31.9922H127.602Z" fill="black"/>
<rect x="68" y="2" width="15" height="30" fill="black"/>
<rect x="64.9991" y="2" width="8" height="35" transform="rotate(89.587 64.9991 2)" fill="black"/>
<path d="M30.0292 32.1458L29.9958 24.1459L64.9955 24.0001L65.0289 32L30.0292 32.1458Z" fill="black"/>
<rect x="108" y="2" width="15" height="30" fill="black"/>
<path d="M88 2H103V20H88V2Z" fill="black"/>
<path d="M30 3H45V18H30V3Z" fill="black"/>
<path d="M64.9999 32.0456L50 32L50.0426 18L65.0425 18.0457L64.9999 32.0456Z" fill="black"/>
<path d="M1.60156 16.5234L23.4375 7.16797V11.2305L5.91797 18.5938L23.4375 25.918V30L1.60156 20.6445V16.5234Z" fill="black"/>
<path d="M168.328 18.7605L146.388 27.8681L146.434 23.8058L164.036 16.6414L146.6 9.11928L146.647 5.03751L168.375 14.6396L168.328 18.7605Z" fill="black"/>
</svg>
